# xmcd
#
# Track frame offsets: 
#        150
#        13094
#        24407
#        36343
#        48660
#        61480
#        75545
#        87517
#        101711
#        115616
#        129599
#        142759
#        157144
#        170443
#        184038
#        197589
#        210826
#        223174
#        236552
#        249339
#        261622
#        274275
#        286548
#        299490
#        311878
#        324749
#
# Disc length: 4505 seconds
#
# Revision: 0
# Processed by: cddbd v1.5.2PL0 Copyright (c) Steve Scherf et al.
# Submitted via: ExactAudioCopy v0.99pb5
#
DISCID=8611971a
DTITLE=Barbara Demick - Nothing to Envy [8 of 10]
DYEAR=2010
DGENRE=Audiobook
TTITLE0=08-01
TTITLE1=08-02
TTITLE2=08-03
TTITLE3=08-04
TTITLE4=08-05
TTITLE5=08-06
TTITLE6=08-07
TTITLE7=08-08
TTITLE8=08-09
TTITLE9=08-10
TTITLE10=08-11
TTITLE11=08-12
TTITLE12=08-13
TTITLE13=08-14
TTITLE14=08-15
TTITLE15=08-16
TTITLE16=08-17
TTITLE17=08-18
TTITLE18=08-19
TTITLE19=08-20
TTITLE20=08-21
TTITLE21=08-22
TTITLE22=08-23
TTITLE23=08-24
TTITLE24=08-25
TTITLE25=08-26
EXTD=
EXTT0=
EXTT1=
EXTT2=
EXTT3=
EXTT4=
EXTT5=
EXTT6=
EXTT7=
EXTT8=
EXTT9=
EXTT10=
EXTT11=
EXTT12=
EXTT13=
EXTT14=
EXTT15=
EXTT16=
EXTT17=
EXTT18=
EXTT19=
EXTT20=
EXTT21=
EXTT22=
EXTT23=
EXTT24=
EXTT25=
PLAYORDER=
